<svg width="50" height="50" viewBox="0 0 50 50" fill="none" xmlns="http://www.w3.org/2000/svg">
<circle cx="25" cy="25" r="25" fill="#BE3052" fill-opacity="0.12"/>
<path d="M18 16H19C20.0538 16 20.9181 16.8164 20.9945 17.8508L21 18V32C21 33.0538 20.1836 33.9181 19.1492 33.9945L19 34H18C16.9462 34 16.0819 33.1836 16.0055 32.1492L16 32V18C16 16.9462 16.8164 16.0819 17.8508 16.0055L18 16H19H18ZM24 16H25C26.0538 16 26.9181 16.8164 26.9945 17.8508L27 18V32C27 33.0538 26.1836 33.9181 25.1492 33.9945L25 34H24C22.9462 34 22.0819 33.1836 22.0055 32.1492L22 32V18C22 16.9462 22.8164 16.0819 23.8508 16.0055L24 16H25H24ZM30.9743 18.0005C31.8138 18.0005 32.5825 18.5311 32.8643 19.3464L32.9113 19.5025L35.9263 31.2485C36.1888 32.2689 35.613 33.3094 34.6295 33.6402L34.4863 33.6825L33.5173 33.9315C33.3513 33.9735 33.1833 33.9945 33.0193 33.9945C32.1807 33.9945 31.4112 33.463 31.1302 32.6476L31.0833 32.4915L28.0673 20.7465C27.8058 19.7251 28.3807 18.6855 29.3649 18.3548L29.5083 18.3125L30.4763 18.0635C30.6423 18.0205 30.8103 18.0005 30.9743 18.0005ZM19 17.5H18C17.7547 17.5 17.5504 17.6778 17.5081 17.9104L17.5 18V32C17.5 32.2444 17.677 32.4494 17.9102 32.4919L18 32.5H19C19.2453 32.5 19.4496 32.3222 19.4919 32.0896L19.5 32V18C19.5 17.7556 19.323 17.5506 19.0898 17.5081L19 17.5ZM25 17.5H24C23.7547 17.5 23.5504 17.6778 23.5081 17.9104L23.5 18V32C23.5 32.2444 23.677 32.4494 23.9102 32.4919L24 32.5H25C25.2453 32.5 25.4496 32.3222 25.4919 32.0896L25.5 32V18C25.5 17.7556 25.323 17.5506 25.0898 17.5081L25 17.5ZM30.9753 19.5005L30.9119 19.5044L30.8493 19.5165L29.8813 19.7645C29.7063 19.8095 29.6143 19.9275 29.5743 19.9955C29.5431 20.0483 29.4985 20.1472 29.5049 20.2742L29.5203 20.3745L32.5363 32.1185C32.6023 32.3765 32.8333 32.4945 33.0193 32.4945L33.0818 32.4906L33.1443 32.4785L34.1133 32.2295C34.3515 32.1691 34.5052 31.9458 34.4879 31.7102L34.4733 31.6215L31.4583 19.8755C31.3913 19.6185 31.1613 19.5005 30.9753 19.5005Z" fill="#BE3052"/>
</svg>
