<svg width="50" height="50" viewBox="0 0 50 50" fill="none" xmlns="http://www.w3.org/2000/svg">
<circle cx="25" cy="25" r="25" fill="#BE3052" fill-opacity="0.12"/>
<path d="M30 12C31.6569 12 33 13.3599 33 15.0375V35.9625C33 37.64 31.6569 39 30 39H20C18.3431 39 17 37.64 17 35.9625V15.0375C17 13.3599 18.3431 12 20 12H30ZM21.665 33.2786C21.1128 33.2786 20.665 33.7319 20.665 34.2911C20.665 34.8502 21.1128 35.3036 21.665 35.3036C22.2173 35.3036 22.665 34.8502 22.665 34.2911C22.665 33.7319 22.2173 33.2786 21.665 33.2786ZM24.9984 33.2786C24.4461 33.2786 23.9984 33.7319 23.9984 34.2911C23.9984 34.8502 24.4461 35.3036 24.9984 35.3036C25.5507 35.3036 25.9984 34.8502 25.9984 34.2911C25.9984 33.7319 25.5507 33.2786 24.9984 33.2786ZM28.3317 33.2786C27.7795 33.2786 27.3317 33.7319 27.3317 34.2911C27.3317 34.8502 27.7795 35.3036 28.3317 35.3036C28.884 35.3036 29.3317 34.8502 29.3317 34.2911C29.3317 33.7319 28.884 33.2786 28.3317 33.2786Z" fill="#ED4C5C"/>
</svg>
