<svg width="48" height="48" viewBox="0 0 48 48" fill="none" xmlns="http://www.w3.org/2000/svg">
<circle cx="24" cy="24" r="24" fill="#BE3052" fill-opacity="0.12"/>
<path d="M24.2407 15.9639C24.0063 15.9639 23.797 16.0714 23.6595 16.2398L23.6024 16.283C21.458 15.6329 19.0319 16.1505 17.336 17.8356C15.8274 19.3345 15.2486 21.4073 15.5996 23.3467L15.5845 23.3614L14.6274 24.3125C13.7951 25.1394 13.7951 26.4802 14.6274 27.3072C15.1164 27.793 15.7838 27.9935 16.42 27.9085C16.5138 28.2547 16.6974 28.582 16.9709 28.8537C17.3426 29.2231 17.8175 29.4275 18.3035 29.4669C18.3431 29.9498 18.5488 30.4218 18.9206 30.7912C19.3095 31.1777 19.8113 31.3835 20.3205 31.4088C20.3461 31.9147 20.5532 32.4131 20.9421 32.7995C21.7024 33.5549 22.8942 33.6203 23.7291 32.9956L24.1156 33.3796C24.952 34.2106 26.3079 34.2106 27.1443 33.3796C27.5147 33.0115 27.721 32.5424 27.7633 32.0616C28.2462 32.0205 28.7177 31.8164 29.0874 31.449C29.4581 31.0808 29.6636 30.6109 29.7043 30.1299C30.1809 30.0853 30.6453 29.8817 31.0104 29.5189C31.2966 29.2346 31.4844 28.8895 31.5738 28.5255C32.2005 28.5999 32.854 28.3981 33.3349 27.9203C34.1672 27.0933 34.1672 25.7526 33.3349 24.9256L32.5014 24.0974L32.6727 23.4309C33.045 21.9816 32.8578 20.4465 32.1482 19.128C31.1007 17.1815 29.0615 15.9689 26.8448 15.9689H25.2381C25.1696 15.9655 25.1008 15.9639 25.0316 15.9639H24.2407ZM27.1649 20.909L30.6286 24.3505L30.6325 24.3546L30.6458 24.3682L32.2708 25.9828C32.5155 26.2259 32.5155 26.62 32.2708 26.8631C32.0262 27.1061 31.6296 27.1061 31.3849 26.8631L29.7599 25.2484C29.4661 24.9565 28.9897 24.9565 28.6959 25.2484L28.6796 25.2646C28.3857 25.5566 28.3857 26.0299 28.6796 26.3219L29.9464 27.5806C30.1912 27.8239 30.1912 28.2183 29.9464 28.4616C29.7232 28.6833 29.3724 28.7033 29.1274 28.5201C28.8267 28.2953 28.4051 28.3258 28.1403 28.5916C27.8756 28.8573 27.8491 29.2765 28.0784 29.573C28.2668 29.8167 28.2481 30.1685 28.0234 30.3918C27.7968 30.6169 27.4389 30.6339 27.1934 30.4419C26.8947 30.2082 26.4674 30.2327 26.1977 30.499C25.9279 30.7653 25.9006 31.1897 26.1339 31.488C26.3276 31.7356 26.3093 32.0947 26.0802 32.3224C25.8315 32.5694 25.4284 32.5694 25.1797 32.3224L24.808 31.953L24.9132 31.8484C25.7455 31.0215 25.7455 29.6807 24.9132 28.8537C24.5243 28.4673 24.0225 28.2614 23.5133 28.2361C23.4878 27.7303 23.2806 27.2318 22.8918 26.8455C22.52 26.4761 22.0451 26.2717 21.5592 26.2323C21.5196 25.7494 21.3139 25.2774 20.9421 24.9079C20.4531 24.4221 19.7857 24.2217 19.1494 24.3067C19.0557 23.9604 18.8721 23.6332 18.5986 23.3614C18.1672 22.9329 17.597 22.7264 17.0318 22.742C16.885 21.3693 17.3411 19.945 18.4 18.8928C19.3843 17.9149 20.6921 17.4544 21.981 17.5114L20.4836 18.646C19.4597 19.4217 19.2624 20.879 20.0433 21.8989C20.8223 22.9166 22.2805 23.114 23.302 22.34L25.1908 20.909H27.1649ZM21.3894 19.8416L24.5277 17.4639H25.0316C25.0811 17.4639 25.1302 17.4652 25.1789 17.4678C25.1922 17.4685 25.2056 17.4689 25.219 17.4689H26.8448C28.513 17.4689 30.043 18.3815 30.8274 19.8389C31.3221 20.7581 31.4773 21.8173 31.2712 22.8341L28.0591 19.6376C27.9178 19.4915 27.7232 19.409 27.52 19.409H24.9388C24.7752 19.409 24.6162 19.4624 24.4858 19.5612L22.3962 21.1444C22.0326 21.4199 21.5116 21.3493 21.2343 20.9872C20.9589 20.6273 21.0282 20.1153 21.3894 19.8416ZM18.035 27.7965C17.8671 27.6296 17.8144 27.3917 17.877 27.1802C17.9056 27.0836 17.9582 26.9925 18.035 26.9162L18.9921 25.9652C19.2367 25.7221 19.6334 25.7221 19.878 25.9652C20.1199 26.2055 20.1226 26.5934 19.8863 26.837L19.8778 26.8455L18.9206 27.7965L18.9124 27.8048C18.8374 27.8765 18.7489 27.9261 18.6552 27.9534C18.4424 28.0156 18.2029 27.9633 18.035 27.7965ZM17.5437 24.428C17.6192 24.5061 17.6701 24.5991 17.6966 24.6971C17.7526 24.9049 17.6986 25.1359 17.5345 25.2989L16.5774 26.25C16.3327 26.493 15.9361 26.493 15.6915 26.25C15.4468 26.0069 15.4468 25.6128 15.6915 25.3697L16.6486 24.4187C16.8932 24.1756 17.2899 24.1756 17.5345 24.4187L17.5437 24.428ZM22.892 31.7422C22.8152 31.8186 22.7233 31.871 22.6258 31.8994C22.4132 31.9613 22.1739 31.9089 22.0061 31.7422C21.8384 31.5755 21.7856 31.3378 21.848 31.1265C21.8765 31.0297 21.9293 30.9384 22.0061 30.862L22.9633 29.911C23.2079 29.6679 23.6046 29.6679 23.8492 29.911C24.0938 30.154 24.0938 30.5481 23.8492 30.7912L22.892 31.7422ZM20.8706 29.734C20.7939 29.8102 20.7023 29.8625 20.6051 29.8909C20.3922 29.9532 20.1526 29.9009 19.9847 29.734C19.8167 29.5671 19.7641 29.329 19.8267 29.1175C19.8543 29.0245 19.9042 28.9366 19.9764 28.8621L19.9849 28.8537L20.9421 27.9027L20.9503 27.8944C21.1956 27.6597 21.5859 27.6625 21.8277 27.9027C22.0724 28.1458 22.0724 28.5399 21.8277 28.783L20.8706 29.734Z" fill="#ED4C5C"/>
</svg>
