<svg width="50" height="50" viewBox="0 0 50 50" fill="none" xmlns="http://www.w3.org/2000/svg">
<circle cx="25" cy="25" r="25" fill="#BE3052" fill-opacity="0.12"/>
<path d="M27.5598 15.9772C26.5584 15.5766 25.4414 15.5766 24.4401 15.9772L17.5314 18.7406C16.848 19.014 16.3999 19.6759 16.3999 20.4119V29.587C16.3999 30.323 16.848 30.985 17.5314 31.2583L24.4401 34.0217C24.9694 34.2335 25.531 34.3332 26.0907 34.3212C25.8007 33.929 25.553 33.5038 25.3545 33.0518C25.1955 33.0169 25.0387 32.9688 24.8857 32.9076L17.9771 30.1441C17.7493 30.0529 17.5999 29.8324 17.5999 29.587V20.4856L25.4001 23.6057V27.6458C25.7023 26.9884 26.1095 26.3891 26.6 25.8695V23.6057L34.3999 20.4858V24.5193C34.8293 24.7387 35.2314 25.0038 35.5999 25.3082V20.4119C35.5999 19.6759 35.1518 19.014 34.4684 18.7406L27.5598 15.9772ZM24.8857 17.0913C25.601 16.8052 26.3988 16.8052 27.1141 17.0913L33.3845 19.5995L30.65 20.6933L23.2655 17.7394L24.8857 17.0913ZM21.65 18.3856L29.0346 21.3395L26 22.5533L18.6155 19.5994L21.65 18.3856ZM31.3999 35.7996C34.3823 35.7996 36.7999 33.382 36.7999 30.3996C36.7999 27.4172 34.3823 24.9996 31.3999 24.9996C28.4175 24.9996 25.9999 27.4172 25.9999 30.3996C25.9999 33.382 28.4175 35.7996 31.3999 35.7996ZM30.1999 31.3511L33.3756 28.1754C33.6099 27.941 33.9899 27.941 34.2242 28.1754C34.4585 28.4096 34.4585 28.7896 34.2242 29.0239L30.6242 32.6239C30.3899 32.8582 30.0099 32.8582 29.7756 32.6239L28.5756 31.4239C28.3413 31.1896 28.3413 30.8096 28.5756 30.5754C28.8099 30.341 29.1899 30.341 29.4242 30.5754L30.1999 31.3511Z" fill="#BE3052"/>
</svg>
