<svg width="48" height="48" viewBox="0 0 48 48" fill="none" xmlns="http://www.w3.org/2000/svg">
<circle cx="24" cy="24" r="24" fill="#BE3052" fill-opacity="0.12"/>
<path d="M15.7593 15C14.964 15 14.3193 15.6716 14.3193 16.5C14.3193 17.1531 14.72 17.7087 15.2793 17.9146V25.25C15.2793 27.3211 16.8911 29 18.8793 29H23.1993V31.5H19.8393C19.4417 31.5 19.1193 31.8358 19.1193 32.25C19.1193 32.6642 19.4417 33 19.8393 33H27.9993C28.3969 33 28.7193 32.6642 28.7193 32.25C28.7193 31.8358 28.3969 31.5 27.9993 31.5H24.6393V29H28.9593C30.9476 29 32.5593 27.3211 32.5593 25.25V17.9146C33.1186 17.7087 33.5193 17.1531 33.5193 16.5C33.5193 15.6716 32.8746 15 32.0793 15H15.7593ZM16.7193 18H31.1193V25.25C31.1193 26.4926 30.1523 27.5 28.9593 27.5H18.8793C17.6864 27.5 16.7193 26.4926 16.7193 25.25V18Z" fill="#ED4C5C"/>
</svg>
