<svg width="28" height="28" viewBox="0 0 28 28" fill="none" xmlns="http://www.w3.org/2000/svg">
<path d="M10.9099 21H8.21473V12.3206H10.9099V21ZM9.56087 11.1366C8.69904 11.1366 8 10.4228 8 9.56091C8 9.14693 8.16445 8.74991 8.45717 8.45718C8.74989 8.16445 9.1469 8 9.56087 8C9.97484 8 10.3719 8.16445 10.6646 8.45718C10.9573 8.74991 11.1217 9.14693 11.1217 9.56091C11.1217 10.4228 10.4224 11.1366 9.56087 11.1366ZM20.9971 21H18.3077V16.7749C18.3077 15.768 18.2874 14.4766 16.9065 14.4766C15.5052 14.4766 15.2904 15.5706 15.2904 16.7024V21H12.5982V12.3206H15.1831V13.5045H15.2208C15.5806 12.8226 16.4596 12.1029 17.7709 12.1029C20.4986 12.1029 21 13.8992 21 16.2323V21H20.9971Z" fill="#ED4C5C"/>
<circle cx="14" cy="14" r="13.5" stroke="#ED4C5C"/>
</svg>
