<svg width="22" height="26" viewBox="0 0 22 26" fill="none" xmlns="http://www.w3.org/2000/svg">
<path d="M18.6961 19.1024L17.2123 20.5697C16.1188 21.643 14.6998 23.023 12.9551 24.7099C11.8647 25.7641 10.1349 25.764 9.04482 24.7096L4.68094 20.4647C4.13249 19.9262 3.67341 19.4721 3.30361 19.1024C-0.946905 14.8519 -0.946905 7.96037 3.30361 3.70986C7.55412 -0.540655 14.4456 -0.540655 18.6961 3.70986C22.9466 7.96037 22.9466 14.8519 18.6961 19.1024ZM14.1251 11.7495C14.1251 10.0234 12.7258 8.62421 10.9998 8.62421C9.27382 8.62421 7.87459 10.0234 7.87459 11.7495C7.87459 13.4755 9.27382 14.8747 10.9998 14.8747C12.7258 14.8747 14.1251 13.4755 14.1251 11.7495Z" fill="#ED4C5C"/>
</svg>
