<svg width="27" height="29" viewBox="0 0 27 29" fill="none" xmlns="http://www.w3.org/2000/svg">
<path d="M26.1837 22.0911L20.1831 18.4756C19.9266 18.3217 19.6135 18.2376 19.2911 18.2359C18.9686 18.2342 18.6541 18.3151 18.3951 18.4663L14.4908 20.7397C10.3711 18.0687 7.56011 14.352 6.53993 10.2273L10.9378 8.60654C11.2305 8.49956 11.4709 8.32041 11.6227 8.09621C11.7745 7.87201 11.8294 7.61497 11.7791 7.364L10.6001 1.48696C10.5435 1.21594 10.3686 0.968976 10.1055 0.788649C9.84242 0.608323 9.50768 0.505938 9.15901 0.49915L2.54252 0.387547C2.20606 0.38191 1.87712 0.466248 1.60937 0.626795C1.34162 0.787342 1.15087 1.01462 1.06827 1.27153C-2.839 13.4123 6.49593 25.7277 21.8888 28.7999C22.215 28.8652 22.5598 28.8414 22.8667 28.7325C23.1736 28.6236 23.4245 28.436 23.5785 28.2002L26.6053 23.5656C26.7637 23.3195 26.8083 23.0377 26.7313 22.7686C26.6544 22.4995 26.4607 22.2599 26.1837 22.0911Z" fill="#ED4C5C"/>
</svg>
