<svg width="50" height="46" viewBox="0 0 50 46" fill="none" xmlns="http://www.w3.org/2000/svg">
<path d="M27.1431 41.1312C27.6718 43.7631 30.087 45.643 32.7439 45.2592C40.9489 44.0743 49.9646 40.3751 49.9705 24.4676V11.3456C49.9705 5.36383 45.1213 0.514648 39.1396 0.514648C33.1578 0.514648 28.3086 5.36384 28.3086 11.3456V21.8786C28.3086 24.2335 30.2177 26.1426 32.5726 26.1426C34.8258 26.1426 36.8785 27.9899 36.054 30.0868C35.1767 32.318 33.3264 33.6716 31.0321 34.625C28.3919 35.722 26.58 38.3281 27.1431 41.1312ZM0.288638 41.1313C0.817342 43.7632 3.23251 45.643 5.88943 45.2593C14.0944 44.0743 23.1102 40.375 23.1161 24.4676V11.3456C23.1161 5.36385 18.2669 0.514648 12.2851 0.514648C6.30329 0.514648 1.45409 5.36385 1.45409 11.3457V21.8786C1.45409 24.2335 3.36317 26.1426 5.71813 26.1426C7.97127 26.1426 10.024 27.9899 9.19955 30.0868C8.32225 32.318 6.47191 33.6717 4.17763 34.625C1.53742 35.7221 -0.274452 38.3282 0.288638 41.1313Z" fill="#BE3052"/>
</svg>
