<svg width="27" height="28" viewBox="0 0 27 28" fill="none" xmlns="http://www.w3.org/2000/svg">
<path d="M18.6637 11.7414C18.672 11.8617 18.672 11.982 18.672 12.1023C18.672 15.7719 15.9912 20 11.0914 20C9.58186 20 8.17958 19.5445 7 18.7539C7.21448 18.7797 7.42067 18.7883 7.6434 18.7883C8.88894 18.7883 10.0355 18.35 10.9512 17.6024C9.77983 17.5766 8.79822 16.7773 8.46002 15.6773C8.62501 15.7031 8.78997 15.7203 8.96321 15.7203C9.20242 15.7203 9.44165 15.6859 9.66435 15.6258C8.44354 15.368 7.5279 14.2508 7.5279 12.9016V12.8672C7.88258 13.0734 8.29505 13.2024 8.73221 13.2195C8.01456 12.7211 7.5444 11.8703 7.5444 10.9078C7.5444 10.3922 7.67636 9.91952 7.90734 9.50702C9.2189 11.1914 11.1904 12.2914 13.401 12.4117C13.3598 12.2055 13.335 11.9906 13.335 11.7758C13.335 10.2461 14.5228 9 15.9994 9C16.7665 9 17.4594 9.33516 17.9461 9.87656C18.5482 9.75626 19.1256 9.52421 19.6371 9.20625C19.4391 9.8508 19.0184 10.3922 18.4657 10.7359C19.0019 10.6758 19.5216 10.5211 20 10.3063C19.6371 10.8562 19.1834 11.3461 18.6637 11.7414Z" fill="#ED4C5C"/>
<path d="M26.5 14C26.5 21.4731 20.6627 27.5 13.5 27.5C6.33728 27.5 0.5 21.4731 0.5 14C0.5 6.52686 6.33728 0.5 13.5 0.5C20.6627 0.5 26.5 6.52686 26.5 14Z" stroke="#ED4C5C"/>
</svg>
